<svg width="16" height="16" viewBox="0 0 16 16" fill="none" xmlns="http://www.w3.org/2000/svg">
<path d="M10.5 8.02579e-08C11.2758 0.00175536 12.0425 0.16765 12.7496 0.486785C13.4567 0.805919 14.0883 1.27107 14.6029 1.85167C15.1175 2.43228 15.5034 3.11519 15.7352 3.85554C15.9671 4.5959 16.0397 5.37694 15.9482 6.14734C15.8567 6.91774 15.6033 7.66006 15.2045 8.32554C14.8057 8.99102 14.2706 9.56459 13.6344 10.0086C12.9982 10.4525 12.2752 10.7568 11.513 10.9015C10.7508 11.0462 9.96665 11.028 9.212 10.848L8.28 11.78C8.21045 11.8497 8.12785 11.905 8.0369 11.9428C7.94596 11.9805 7.84847 12 7.75 12H7V12.75C6.99997 12.8485 6.98052 12.946 6.94277 13.0369C6.90502 13.1278 6.84971 13.2105 6.78 13.28L6.28 13.78C6.21046 13.8497 6.12785 13.905 6.0369 13.9428C5.94596 13.9805 5.84847 14 5.75 14H5V14.75C4.99997 14.8485 4.98052 14.946 4.94277 15.0369C4.90502 15.1278 4.84971 15.2105 4.78 15.28L4.28 15.78C4.21046 15.8497 4.12785 15.905 4.0369 15.9428C3.94596 15.9805 3.84847 16 3.75 16H1.75C1.28587 16 0.840752 15.8156 0.512563 15.4874C0.184374 15.1592 0 14.7141 0 14.25L0 12.25C0 12.051 0.079 11.861 0.22 11.72L5.152 6.788C4.95718 5.97923 4.94837 5.13679 5.12623 4.32412C5.30409 3.51145 5.66398 2.74971 6.17882 2.09625C6.69366 1.44279 7.35002 0.914629 8.09851 0.551531C8.84699 0.188434 9.66809 -0.000142027 10.5 8.02579e-08ZM6.5 5.5C6.499 5.931 6.569 6.36 6.705 6.769C6.74917 6.90119 6.75563 7.04307 6.72366 7.17873C6.69169 7.31438 6.62255 7.43845 6.524 7.537L1.5 12.56V14.25C1.5 14.388 1.612 14.5 1.75 14.5H3.44L3.5 14.44V13.25C3.5 13.0511 3.57902 12.8603 3.71967 12.7197C3.86032 12.579 4.05109 12.5 4.25 12.5H5.44L5.5 12.44V11.25C5.5 11.0511 5.57902 10.8603 5.71967 10.7197C5.86032 10.579 6.05109 10.5 6.25 10.5H7.44L8.463 9.475C8.56166 9.37662 8.68577 9.30767 8.82142 9.27588C8.95708 9.24409 9.0989 9.25071 9.231 9.295C10.0334 9.56343 10.9003 9.5705 11.707 9.31519C12.5137 9.05987 13.2186 8.55532 13.7205 7.87409C14.2223 7.19286 14.4952 6.37003 14.4999 5.52392C14.5047 4.6778 14.2409 3.85198 13.7467 3.1652C13.2525 2.47842 12.5532 1.96605 11.7494 1.70176C10.9456 1.43748 10.0787 1.43488 9.27334 1.69436C8.46798 1.95384 7.76565 2.46202 7.26732 3.14583C6.76899 3.82965 6.50035 4.65387 6.5 5.5ZM11 6C10.7348 6 10.4804 5.89464 10.2929 5.70711C10.1054 5.51957 10 5.26522 10 5C10 4.73478 10.1054 4.48043 10.2929 4.29289C10.4804 4.10536 10.7348 4 11 4C11.2652 4 11.5196 4.10536 11.7071 4.29289C11.8946 4.48043 12 4.73478 12 5C12 5.26522 11.8946 5.51957 11.7071 5.70711C11.5196 5.89464 11.2652 6 11 6Z" fill="#57606A"/>
</svg>
