<svg width="24" height="24" viewBox="0 0 24 24" fill="none" xmlns="http://www.w3.org/2000/svg">
<g id="Frame 427319256">
<path id="Vector" d="M1.71429 19.8672C1.21313 20.0425 0.778894 20.3693 0.471745 20.8024C0.164597 21.2355 -0.000264552 21.7534 3.18661e-07 22.2843V23.9986H1.71429V19.8672Z" fill="#5E5ADB"/>
<path id="Vector_2" d="M19.2853 21H4.71387V24H19.2853V21Z" fill="#5E5ADB"/>
<path id="Vector_3" d="M24.0004 22.2843C24.0007 21.7534 23.8358 21.2355 23.5287 20.8024C23.2215 20.3693 22.7873 20.0425 22.2861 19.8672V23.9986H24.0004V22.2843Z" fill="#5E5ADB"/>
<path id="Vector_4" d="M14.1431 17.1445H9.85742V18.0017H14.1431V17.1445Z" fill="#5E5ADB"/>
<path id="Vector_5" d="M0.857143 11.493V6.50781C0.607325 6.59613 0.390896 6.75948 0.237466 6.97551C0.0840359 7.19154 0.00109841 7.4497 0 7.71467V10.2861C0.00109841 10.5511 0.0840359 10.8092 0.237466 11.0253C0.390896 11.2413 0.607325 11.4046 0.857143 11.493Z" fill="#5E5ADB"/>
<path id="Vector_6" d="M21.4284 19.7126C21.4284 19.4853 21.3381 19.2673 21.1774 19.1065C21.0166 18.9458 20.7986 18.8555 20.5713 18.8555H3.42843C3.2011 18.8555 2.98309 18.9458 2.82234 19.1065C2.6616 19.2673 2.57129 19.4853 2.57129 19.7126V23.9983H3.857V20.9983C3.857 20.771 3.94731 20.553 4.10805 20.3922C4.2688 20.2315 4.48682 20.1412 4.71415 20.1412H19.2856C19.5129 20.1412 19.7309 20.2315 19.8917 20.3922C20.0524 20.553 20.1427 20.771 20.1427 20.9983V23.9983H21.4284V19.7126Z" fill="#5E5ADB"/>
<path id="Vector_7" d="M11.9998 12.4276C12.502 12.4307 12.9899 12.2598 13.3805 11.9441C13.7711 11.6283 14.0404 11.1871 14.1426 10.6953L14.1323 10.7133H9.86719C9.96948 11.2016 10.2379 11.6394 10.6268 11.952C11.0156 12.2646 11.5009 12.4326 11.9998 12.4276Z" fill="white"/>
<path id="Vector_8" d="M4.71387 16.2863H19.2853C20.0806 16.2853 20.8431 15.9689 21.4055 15.4065C21.9679 14.8441 22.2843 14.0816 22.2853 13.2863V4.71484C22.2844 3.91947 21.968 3.15694 21.4056 2.59453C20.8432 2.03211 20.0807 1.71575 19.2853 1.71484H4.71387C3.9185 1.71575 3.15596 2.03211 2.59355 2.59453C2.03114 3.15694 1.71477 3.91947 1.71387 4.71484V13.2863C1.71489 14.0816 2.03129 14.8441 2.59367 15.4065C3.15606 15.9689 3.91853 16.2853 4.71387 16.2863ZM2.57101 5.57199C2.57169 4.89021 2.84283 4.23655 3.32492 3.75446C3.807 3.27237 4.46066 3.00124 5.14244 3.00056H18.8567C19.5385 3.00124 20.1922 3.27237 20.6742 3.75446C21.1563 4.23655 21.4275 4.89021 21.4282 5.57199V12.4291C21.4275 13.1109 21.1563 13.7646 20.6742 14.2467C20.1922 14.7287 19.5385 14.9999 18.8567 15.0006H5.14244C4.46066 14.9999 3.807 14.7287 3.32492 14.2467C2.84283 13.7646 2.57169 13.1109 2.57101 12.4291V5.57199Z" fill="#5E5ADB"/>
<path id="Vector_9" d="M11.9998 0C11.7349 0.00109841 11.4767 0.0840359 11.2607 0.237466C11.0446 0.390896 10.8813 0.607325 10.793 0.857143H13.2067C13.1184 0.607325 12.955 0.390896 12.739 0.237466C12.523 0.0840359 12.2648 0.00109841 11.9998 0Z" fill="#5E5ADB"/>
<path id="Vector_10" d="M23.9997 10.2861V7.71467C23.9986 7.4497 23.9157 7.19154 23.7623 6.97551C23.6088 6.75948 23.3924 6.59613 23.1426 6.50781V11.493C23.3924 11.4046 23.6088 11.2413 23.7623 11.0253C23.9157 10.8092 23.9986 10.5511 23.9997 10.2861Z" fill="#5E5ADB"/>
<path id="Vector_11" d="M5.143 14.1412H18.8573C19.3119 14.1412 19.748 13.9606 20.0695 13.6391C20.391 13.3176 20.5716 12.8816 20.5716 12.4269V5.56975C20.5716 5.1151 20.391 4.67906 20.0695 4.35757C19.748 4.03608 19.3119 3.85547 18.8573 3.85547H5.143C4.68834 3.85547 4.2523 4.03608 3.93081 4.35757C3.60932 4.67906 3.42871 5.1151 3.42871 5.56975V12.4269C3.42871 12.8816 3.60932 13.3176 3.93081 13.6391C4.2523 13.9606 4.68834 14.1412 5.143 14.1412ZM16.7144 4.71261C17.223 4.71261 17.7202 4.86342 18.143 5.14598C18.5659 5.42853 18.8955 5.83013 19.0901 6.3C19.2847 6.76986 19.3357 7.28689 19.2364 7.7857C19.1372 8.28451 18.8923 8.74269 18.5327 9.10231C18.1731 9.46194 17.7149 9.70684 17.2161 9.80606C16.7173 9.90528 16.2002 9.85436 15.7304 9.65973C15.2605 9.46511 14.8589 9.13552 14.5764 8.71265C14.2938 8.28978 14.143 7.79262 14.143 7.28404C14.1437 6.60226 14.4148 5.94861 14.8969 5.46652C15.379 4.98443 16.0326 4.71329 16.7144 4.71261ZM14.1327 9.85547C14.2621 9.85514 14.39 9.88363 14.507 9.93885C14.6241 9.99408 14.7274 10.0747 14.8094 10.1748C14.8876 10.2689 14.9439 10.3793 14.9741 10.4979C15.0044 10.6165 15.0078 10.7404 14.9843 10.8605C14.8406 11.5456 14.4655 12.1604 13.9221 12.6017C13.3787 13.043 12.7 13.2839 11.9999 13.2839C11.2999 13.2839 10.6212 13.043 10.0777 12.6017C9.53431 12.1604 9.15926 11.5456 9.01557 10.8605C8.9922 10.7403 8.99581 10.6165 9.02612 10.4979C9.05643 10.3793 9.1127 10.2689 9.19085 10.1748C9.27289 10.0747 9.37618 9.99408 9.49323 9.93885C9.61028 9.88363 9.73815 9.85514 9.86757 9.85547H14.1327ZM7.28585 4.71261C7.79443 4.71261 8.29159 4.86342 8.71446 5.14598C9.13733 5.42853 9.46692 5.83013 9.66154 6.3C9.85617 6.76986 9.90709 7.28689 9.80787 7.7857C9.70865 8.28451 9.46375 8.74269 9.10413 9.10231C8.74451 9.46194 8.28632 9.70684 7.78751 9.80606C7.28871 9.90528 6.77168 9.85436 6.30181 9.65973C5.83194 9.46511 5.43034 9.13552 5.14779 8.71265C4.86524 8.28978 4.71443 7.79262 4.71443 7.28404C4.71511 6.60226 4.98624 5.94861 5.46833 5.46652C5.95042 4.98443 6.60408 4.71329 7.28585 4.71261Z" fill="#5E5ADB"/>
<path id="Vector_12" d="M7.28557 8.99888C8.23235 8.99888 8.99986 8.23137 8.99986 7.2846C8.99986 6.33782 8.23235 5.57031 7.28557 5.57031C6.3388 5.57031 5.57129 6.33782 5.57129 7.2846C5.57129 8.23137 6.3388 8.99888 7.28557 8.99888Z" fill="white"/>
<path id="Vector_13" d="M16.7143 8.99888C17.6611 8.99888 18.4286 8.23137 18.4286 7.2846C18.4286 6.33782 17.6611 5.57031 16.7143 5.57031C15.7675 5.57031 15 6.33782 15 7.2846C15 8.23137 15.7675 8.99888 16.7143 8.99888Z" fill="white"/>
</g>
</svg>
