<svg width="20" height="21" viewBox="0 0 20 21" fill="none" xmlns="http://www.w3.org/2000/svg">
<g id="Frame" clip-path="url(#clip0_2493_37053)">
<g id="Icon">
<g id="Business">
<g id="chart_decrease_line">
<path id="&#229;&#189;&#162;&#231;&#138;&#182;" fill-rule="evenodd" clip-rule="evenodd" d="M4.16667 4.64583C4.16667 4.1856 3.79357 3.8125 3.33333 3.8125C2.8731 3.8125 2.5 4.1856 2.5 4.64583V16.3125C2.5 16.7727 2.8731 17.1458 3.33333 17.1458H16.6667C17.1269 17.1458 17.5 16.7727 17.5 16.3125C17.5 15.8523 17.1269 15.4792 16.6667 15.4792H4.16667V4.64583ZM17.4999 10.4672C17.4945 10.007 17.117 9.63842 16.6567 9.64383C16.1966 9.64933 15.8279 10.0268 15.8334 10.487L15.8387 10.941L12.7233 7.82547C12.3977 7.50003 11.8702 7.50003 11.5447 7.82547L9.18767 10.1825L6.24141 7.23622C5.91597 6.91078 5.38833 6.91078 5.0629 7.23622C4.73746 7.56165 4.73746 8.08928 5.0629 8.41472L8.59842 11.9502C8.92383 12.2757 9.4515 12.2757 9.77692 11.9502L12.134 9.59325L16.1071 13.5664C16.3468 13.806 16.7076 13.8767 17.0198 13.7451C17.3322 13.6136 17.5337 13.3061 17.5297 12.9672L17.4999 10.4672Z" fill="#1C1C1C"/>
</g>
</g>
</g>
</g>
<defs>
<clipPath id="clip0_2493_37053">
<rect width="20" height="20" fill="white" transform="translate(0 0.480469)"/>
</clipPath>
</defs>
</svg>
