<svg width="20" height="20" viewBox="0 0 20 20" fill="none" xmlns="http://www.w3.org/2000/svg">
<g id="Frame" clip-path="url(#clip0_1979_71392)">
<g id="&#233;&#161;&#181;&#233;&#157;&#162;-1">
<g id="File">
<g id="copy_2_line">
<path id="&#229;&#189;&#162;&#231;&#138;&#182;" fill-rule="evenodd" clip-rule="evenodd" d="M7.50033 1.66797C6.57985 1.66797 5.83366 2.41416 5.83366 3.33464V5.0013H7.50033V3.33464H16.667V12.5013H15.0003V14.168H16.667C17.5875 14.168 18.3337 13.4218 18.3337 12.5013V3.33464C18.3337 2.41416 17.5875 1.66797 16.667 1.66797H7.50033ZM3.33366 5.83464C2.41318 5.83464 1.66699 6.58083 1.66699 7.5013V16.668C1.66699 17.5885 2.41318 18.3346 3.33366 18.3346H12.5003C13.4208 18.3346 14.167 17.5885 14.167 16.668V7.5013C14.167 6.58083 13.4208 5.83464 12.5003 5.83464H3.33366ZM3.33366 7.5013H12.5003V16.668H3.33366V7.5013Z" fill="#A4A4A4"/>
</g>
</g>
</g>
</g>
<defs>
<clipPath id="clip0_1979_71392">
<rect width="20" height="20" fill="white"/>
</clipPath>
</defs>
</svg>
