<svg width="17" height="16" viewBox="0 0 17 16" fill="none" xmlns="http://www.w3.org/2000/svg">
<g id="Icons">
<path id="Shape" d="M12.9089 12.2427C13.1693 11.9823 13.1693 11.5602 12.9089 11.2999L9.60956 8.00049L12.9098 4.70021C13.1702 4.43986 13.1702 4.01775 12.9098 3.7574C12.6495 3.49705 12.2274 3.49705 11.967 3.7574L8.66675 7.05768L5.36646 3.7574C5.10612 3.49705 4.68401 3.49705 4.42366 3.7574C4.16331 4.01775 4.16331 4.43986 4.42366 4.70021L7.72394 8.00049L4.42456 11.2999C4.16421 11.5602 4.16421 11.9823 4.42456 12.2427C4.68491 12.503 5.10702 12.503 5.36737 12.2427L8.66675 8.9433L11.9661 12.2427C12.2265 12.503 12.6486 12.503 12.9089 12.2427Z" fill="#4B5768"/>
</g>
</svg>
