<svg width="16" height="20" viewBox="0 0 16 20" fill="none" xmlns="http://www.w3.org/2000/svg">
<g clip-path="url(#clip0_3040_24719)">
<path fill-rule="evenodd" clip-rule="evenodd" d="M7.56239 19.3144C7.95758 19.3144 15.0188 11.7698 15.0188 7.65175C15.0188 3.53367 11.6804 0.195312 7.56239 0.195312C3.44431 0.195312 0.105957 3.53367 0.105957 7.65175C0.105957 11.7698 7.16721 19.3144 7.56239 19.3144ZM7.5624 11.3812C9.65027 11.3812 11.3428 9.68863 11.3428 7.60076C11.3428 5.51289 9.65027 3.82034 7.5624 3.82034C5.47454 3.82034 3.78199 5.51289 3.78199 7.60076C3.78199 9.68863 5.47454 11.3812 7.5624 11.3812Z" fill="#464F60"/>
<path fill-rule="evenodd" clip-rule="evenodd" d="M0.105957 7.65175C0.105957 11.7698 7.16721 19.3144 7.56239 19.3144V11.3812C5.47453 11.3811 3.78199 9.68862 3.78199 7.60076C3.78199 5.5129 5.47453 3.82035 7.56239 3.82034V0.195312C3.44431 0.195312 0.105957 3.53367 0.105957 7.65175Z" fill="#666B75"/>
</g>
<defs>
<clipPath id="clip0_3040_24719">
<rect width="16" height="20" fill="white"/>
</clipPath>
</defs>
</svg>
