<svg width="16" height="15" viewBox="0 0 16 15" fill="none" xmlns="http://www.w3.org/2000/svg">
<path d="M15.4286 8.85714V1.42857C15.4286 1.35119 15.4003 1.28423 15.3438 1.22768C15.2872 1.17113 15.2203 1.14286 15.1429 1.14286H0.85716C0.779779 1.14286 0.712815 1.17113 0.656267 1.22768C0.59972 1.28423 0.571446 1.35119 0.571446 1.42857V8.85714C0.571446 8.93452 0.59972 9.00149 0.656267 9.05804C0.712815 9.11458 0.779779 9.14286 0.85716 9.14286H15.1429C15.2203 9.14286 15.2872 9.11458 15.3438 9.05804C15.4003 9.00149 15.4286 8.93452 15.4286 8.85714ZM16.5714 1.42857V11.1429C16.5714 11.5357 16.4316 11.872 16.1518 12.1518C15.872 12.4315 15.5357 12.5714 15.1429 12.5714H10.2857C10.2857 12.7917 10.3334 13.0223 10.4286 13.2634C10.5238 13.5045 10.6191 13.7158 10.7143 13.8973C10.8095 14.0789 10.8572 14.2083 10.8572 14.2857C10.8572 14.4405 10.8006 14.5744 10.6875 14.6875C10.5744 14.8006 10.4405 14.8571 10.2857 14.8571H5.7143C5.55954 14.8571 5.42561 14.8006 5.31252 14.6875C5.19942 14.5744 5.14287 14.4405 5.14287 14.2857C5.14287 14.2024 5.19049 14.0714 5.28573 13.8929C5.38097 13.7143 5.47621 13.506 5.57145 13.2679C5.66668 13.0298 5.7143 12.7976 5.7143 12.5714H0.85716C0.464303 12.5714 0.127994 12.4315 -0.151768 12.1518C-0.43153 11.872 -0.571411 11.5357 -0.571411 11.1429V1.42857C-0.571411 1.03571 -0.43153 0.699405 -0.151768 0.419643C0.127994 0.139881 0.464303 0 0.85716 0H15.1429C15.5357 0 15.872 0.139881 16.1518 0.419643C16.4316 0.699405 16.5714 1.03571 16.5714 1.42857Z" fill="#14BA6D"/>
</svg>
