<svg width="20" height="21" viewBox="0 0 20 21" fill="none" xmlns="http://www.w3.org/2000/svg">
<g id="Frame">
<path id="Vector" d="M16.9307 4.30369C15.6557 3.72869 14.289 3.30369 12.8599 3.06202C12.8471 3.05958 12.834 3.06115 12.8222 3.06653C12.8104 3.0719 12.8006 3.08081 12.794 3.09202C12.619 3.39952 12.424 3.80035 12.2874 4.11702C10.7716 3.89055 9.23064 3.89055 7.71489 4.11702C7.56267 3.76607 7.39102 3.42388 7.20073 3.09202C7.19428 3.08067 7.18452 3.07156 7.17276 3.06591C7.16099 3.06025 7.14779 3.05831 7.13489 3.06036C5.70656 3.30202 4.3399 3.72703 3.06407 4.30286C3.05309 4.30746 3.04379 4.31532 3.0374 4.32536C0.444078 8.13785 -0.266754 11.8562 0.0824121 15.5278C0.0833837 15.5368 0.0861751 15.5455 0.0906162 15.5534C0.0950574 15.5613 0.101055 15.5682 0.108245 15.5736C1.6219 16.6757 3.31018 17.5152 5.1024 18.057C5.11489 18.0608 5.12826 18.0608 5.14074 18.0569C5.15323 18.0531 5.16426 18.0455 5.1724 18.0353C5.5574 17.5186 5.90073 16.9728 6.19406 16.3995C6.21156 16.3661 6.1949 16.3261 6.1599 16.3128C5.62157 16.1101 5.09997 15.8654 4.5999 15.5811C4.59091 15.576 4.58334 15.5687 4.57786 15.56C4.57239 15.5512 4.56917 15.5412 4.56851 15.5309C4.56785 15.5205 4.56976 15.5102 4.57408 15.5008C4.57839 15.4914 4.58498 15.4832 4.59323 15.477C4.69823 15.3995 4.80323 15.3186 4.90323 15.2378C4.91223 15.2305 4.92308 15.2259 4.93455 15.2244C4.94603 15.223 4.95769 15.2247 4.96823 15.2295C8.24072 16.6995 11.7849 16.6995 15.019 15.2295C15.0296 15.2244 15.0414 15.2225 15.053 15.2238C15.0647 15.2251 15.0757 15.2297 15.0849 15.237C15.1849 15.3186 15.289 15.3995 15.3949 15.477C15.4032 15.4831 15.4099 15.4912 15.4144 15.5005C15.4188 15.5098 15.4209 15.5201 15.4204 15.5304C15.4199 15.5407 15.4168 15.5508 15.4115 15.5596C15.4062 15.5685 15.3988 15.5759 15.3899 15.5811C14.8915 15.8678 14.3732 16.1103 13.829 16.312C13.8207 16.315 13.8131 16.3198 13.8067 16.326C13.8003 16.3322 13.7954 16.3397 13.7922 16.348C13.7889 16.3563 13.7875 16.3652 13.788 16.374C13.7884 16.3829 13.7908 16.3916 13.7949 16.3995C14.0949 16.972 14.4382 17.517 14.8157 18.0345C14.8236 18.0451 14.8345 18.053 14.847 18.0572C14.8595 18.0614 14.8731 18.0616 14.8857 18.0578C16.681 17.5175 18.372 16.6776 19.8874 15.5736C19.8948 15.5685 19.901 15.5618 19.9056 15.554C19.9102 15.5463 19.913 15.5376 19.914 15.5286C20.3307 11.2837 19.2157 7.59535 16.9565 4.32702C16.951 4.3164 16.9418 4.30812 16.9307 4.30369ZM6.68323 13.292C5.69823 13.292 4.88573 12.4012 4.88573 11.3087C4.88573 10.2153 5.6824 9.32534 6.68323 9.32534C7.69156 9.32534 8.49656 10.2228 8.48072 11.3087C8.48072 12.402 7.68406 13.292 6.68323 13.292ZM13.329 13.292C12.3432 13.292 11.5315 12.4012 11.5315 11.3087C11.5315 10.2153 12.3274 9.32534 13.329 9.32534C14.3374 9.32534 15.1424 10.2228 15.1265 11.3087C15.1265 12.402 14.3382 13.292 13.329 13.292Z" fill="#5E5ADB"/>
</g>
</svg>
