<svg xmlns="http://www.w3.org/2000/svg" width="18" height="19" viewBox="0 0 18 19" fill="none">
  <g clip-path="url(#clip0_2051_101483)">
    <path fill-rule="evenodd" clip-rule="evenodd" d="M9 2V6.875C9 7.49632 9.5037 8 10.125 8H15V15.5C15 16.3284 14.3285 17 13.5 17H4.5C3.67157 17 3 16.3284 3 15.5V3.5C3 2.67157 3.67157 2 4.5 2H9ZM9 8.75C8.58577 8.75 8.25 9.08577 8.25 9.5V11.5313L7.93935 11.2206C7.64648 10.9278 7.17158 10.9278 6.87868 11.2206C6.58579 11.5135 6.58579 11.9884 6.87868 12.2813L8.46968 13.8723C8.76255 14.1652 9.23745 14.1652 9.53032 13.8723L11.1213 12.2813C11.4142 11.9884 11.4142 11.5135 11.1213 11.2206C10.8284 10.9278 10.3535 10.9278 10.0606 11.2206L9.75 11.5313V9.5C9.75 9.08577 9.41423 8.75 9 8.75ZM10.5 2.03252C10.7819 2.09221 11.0431 2.23243 11.25 2.43934L14.5606 5.75C14.7676 5.95691 14.9078 6.21804 14.9675 6.5H10.5V2.03252Z" fill="white"/>
  </g>
  <defs>
    <clipPath id="clip0_2051_101483">
      <rect width="18" height="18" fill="white" transform="translate(0 0.5)"/>
    </clipPath>
  </defs>
</svg>