<svg width="12" height="12" viewBox="0 0 12 12" fill="none" xmlns="http://www.w3.org/2000/svg">
<g id="Frame" clip-path="url(#clip0_1034_47746)">
<g id="Icon">
<g id="System">
<g id="classify_2_fill">
<path id="&#229;&#189;&#162;&#231;&#138;&#182;" fill-rule="evenodd" clip-rule="evenodd" d="M7.7929 1.37883C8.1834 0.988306 8.8166 0.988306 9.2071 1.37883L10.6213 2.79304C11.0118 3.18357 11.0118 3.81673 10.6213 4.20726L9.2071 5.62147C8.8166 6.01197 8.1834 6.01197 7.7929 5.62147L6.3787 4.20726C5.98815 3.81673 5.98815 3.18357 6.3787 2.79304L7.7929 1.37883ZM4.5 1.50017C5.0523 1.50017 5.5 1.94788 5.5 2.50017V4.50017C5.5 5.05247 5.0523 5.50017 4.5 5.50017H2.5C1.94771 5.50017 1.5 5.05247 1.5 4.50017V2.50017C1.5 1.94788 1.94771 1.50017 2.5 1.50017H4.5ZM10.5 7.50017C10.5 6.94787 10.0523 6.50017 9.5 6.50017H7.5C6.9477 6.50017 6.5 6.94787 6.5 7.50017V9.50017C6.5 10.0525 6.9477 10.5002 7.5 10.5002H9.5C10.0523 10.5002 10.5 10.0525 10.5 9.50017V7.50017ZM4.5 6.50017C5.0523 6.50017 5.5 6.94787 5.5 7.50017V9.50017C5.5 10.0525 5.0523 10.5002 4.5 10.5002H2.5C1.94771 10.5002 1.5 10.0525 1.5 9.50017V7.50017C1.5 6.94787 1.94771 6.50017 2.5 6.50017H4.5Z" fill="#3A56D2"/>
</g>
</g>
</g>
</g>
<defs>
<clipPath id="clip0_1034_47746">
<rect width="12" height="12" fill="white"/>
</clipPath>
</defs>
</svg>
