<svg width="24" height="24" viewBox="0 0 24 24" fill="none" xmlns="http://www.w3.org/2000/svg">
<g id="Frame" clip-path="url(#clip0_2351_127661)">
<g id="&#233;&#161;&#181;&#233;&#157;&#162;-1">
<g id="File">
<g id="document_2_fill">
<path id="&#229;&#189;&#162;&#231;&#138;&#182;&#231;&#187;&#147;&#229;&#144;&#136;" d="M19.0607 7.35357C19.1069 7.3998 19.1498 7.44873 19.1892 7.5H14.5V2.8108C14.5513 2.85022 14.6002 2.89311 14.6464 2.93934C14.6465 2.93935 14.6465 2.93935 14.6465 2.93936L19.0606 7.35355L19.0607 7.35357ZM11.5 2.5V8.5C11.5 9.60458 12.3955 10.5 13.5 10.5H19.5V20C19.5 20.8285 18.8285 21.5 18 21.5H6C5.17157 21.5 4.5 20.8285 4.5 20V4C4.5 3.17157 5.17157 2.5 6 2.5H11.5ZM9 14.5C8.17158 14.5 7.5 15.1716 7.5 16C7.5 16.8284 8.17158 17.5 9 17.5H15C15.8284 17.5 16.5 16.8284 16.5 16C16.5 15.1716 15.8284 14.5 15 14.5H9ZM10 10.5H9C8.17158 10.5 7.5 11.1716 7.5 12C7.5 12.8284 8.17158 13.5 9 13.5H10C10.8284 13.5 11.5 12.8284 11.5 12C11.5 11.1716 10.8284 10.5 10 10.5Z" fill="#E6EAFF" stroke="#96A7FF"/>
</g>
</g>
</g>
</g>
<defs>
<clipPath id="clip0_2351_127661">
<rect width="24" height="24" fill="white"/>
</clipPath>
</defs>
</svg>
