<svg width="20" height="21" viewBox="0 0 20 21" fill="none" xmlns="http://www.w3.org/2000/svg">
<g id="Frame">
<path id="Vector" d="M10 1.72729C8.90573 1.72729 7.8221 1.94284 6.81105 2.36163C5.80001 2.78042 4.88135 3.39425 4.10753 4.16807C2.54472 5.73088 1.66675 7.85049 1.66675 10.0606C1.66675 13.744 4.05842 16.869 7.36675 17.9773C7.78342 18.044 7.91675 17.7857 7.91675 17.5607V16.1523C5.60842 16.6523 5.11675 15.0357 5.11675 15.0357C4.73342 14.069 4.19175 13.8107 4.19175 13.8107C3.43342 13.294 4.25008 13.3107 4.25008 13.3107C5.08342 13.369 5.52508 14.169 5.52508 14.169C6.25008 15.4357 7.47508 15.0607 7.95008 14.8607C8.02508 14.319 8.24175 13.9523 8.47508 13.744C6.62508 13.5357 4.68342 12.819 4.68342 9.64396C4.68342 8.71896 5.00008 7.97729 5.54175 7.38563C5.45842 7.17729 5.16675 6.31063 5.62508 5.18563C5.62508 5.18563 6.32508 4.96063 7.91675 6.03563C8.57508 5.85229 9.29175 5.76063 10 5.76063C10.7084 5.76063 11.425 5.85229 12.0834 6.03563C13.675 4.96063 14.375 5.18563 14.375 5.18563C14.8334 6.31063 14.5417 7.17729 14.4584 7.38563C15 7.97729 15.3167 8.71896 15.3167 9.64396C15.3167 12.8273 13.3667 13.5273 11.5084 13.7357C11.8084 13.994 12.0834 14.5023 12.0834 15.2773V17.5607C12.0834 17.7857 12.2167 18.0523 12.6417 17.9773C15.95 16.8607 18.3334 13.744 18.3334 10.0606C18.3334 8.96628 18.1178 7.88264 17.699 6.8716C17.2803 5.86055 16.6664 4.94189 15.8926 4.16807C15.1188 3.39425 14.2001 2.78042 13.1891 2.36163C12.178 1.94284 11.0944 1.72729 10 1.72729Z" fill="#5E5ADB"/>
</g>
</svg>
