<svg width="20" height="20" viewBox="0 0 20 20" fill="none" xmlns="http://www.w3.org/2000/svg">
<g id="Frame" clip-path="url(#clip0_1979_71386)">
<g id="&#233;&#161;&#181;&#233;&#157;&#162;-1">
<g id="System">
<g id="information_line">
<path id="&#229;&#189;&#162;&#231;&#138;&#182;" d="M10.0003 1.66797C14.6027 1.66797 18.3337 5.39893 18.3337 10.0013C18.3337 14.6036 14.6027 18.3346 10.0003 18.3346C5.39795 18.3346 1.66699 14.6036 1.66699 10.0013C1.66699 5.39893 5.39795 1.66797 10.0003 1.66797ZM10.0003 3.33464C6.31843 3.33464 3.33366 6.3194 3.33366 10.0013C3.33366 13.6832 6.31843 16.668 10.0003 16.668C13.6822 16.668 16.667 13.6832 16.667 10.0013C16.667 6.3194 13.6822 3.33464 10.0003 3.33464ZM9.99199 8.33464C10.4568 8.33464 10.8337 8.71147 10.8337 9.1763V13.4461C11.0827 13.5902 11.2503 13.8596 11.2503 14.168C11.2503 14.6282 10.8772 15.0013 10.417 15.0013H10.0087C9.54374 15.0013 9.16699 14.6245 9.16699 14.1596V10.0013C8.70674 10.0013 8.33366 9.62822 8.33366 9.16797C8.33366 8.70772 8.70674 8.33464 9.16699 8.33464H9.99199ZM10.0003 5.83464C10.4606 5.83464 10.8337 6.20774 10.8337 6.66797C10.8337 7.1282 10.4606 7.5013 10.0003 7.5013C9.54008 7.5013 9.16699 7.1282 9.16699 6.66797C9.16699 6.20774 9.54008 5.83464 10.0003 5.83464Z" fill="#A4A4A4"/>
</g>
</g>
</g>
</g>
<defs>
<clipPath id="clip0_1979_71386">
<rect width="20" height="20" fill="white"/>
</clipPath>
</defs>
</svg>
