<svg width="20" height="21" viewBox="0 0 20 21" fill="none" xmlns="http://www.w3.org/2000/svg">
<g id="Frame">
<path id="Vector" d="M15.8333 2.56055C16.2754 2.56055 16.6993 2.73614 17.0118 3.04871C17.3244 3.36127 17.5 3.78519 17.5 4.22722V15.8938C17.5 16.3359 17.3244 16.7598 17.0118 17.0723C16.6993 17.3849 16.2754 17.5605 15.8333 17.5605H4.16667C3.72464 17.5605 3.30072 17.3849 2.98816 17.0723C2.67559 16.7598 2.5 16.3359 2.5 15.8938V4.22722C2.5 3.78519 2.67559 3.36127 2.98816 3.04871C3.30072 2.73614 3.72464 2.56055 4.16667 2.56055H15.8333ZM15.4167 15.4772V11.0605C15.4167 10.34 15.1304 9.64905 14.621 9.13958C14.1115 8.6301 13.4205 8.34388 12.7 8.34388C11.9917 8.34388 11.1667 8.77722 10.7667 9.42722V8.50222H8.44167V15.4772H10.7667V11.3688C10.7667 10.7272 11.2833 10.2022 11.925 10.2022C12.2344 10.2022 12.5312 10.3251 12.75 10.5439C12.9688 10.7627 13.0917 11.0594 13.0917 11.3688V15.4772H15.4167ZM5.73333 7.19388C6.10464 7.19388 6.46073 7.04638 6.72328 6.78383C6.98583 6.52128 7.13333 6.16519 7.13333 5.79388C7.13333 5.01888 6.50833 4.38555 5.73333 4.38555C5.35982 4.38555 5.0016 4.53393 4.73749 4.79804C4.47338 5.06215 4.325 5.42037 4.325 5.79388C4.325 6.56888 4.95833 7.19388 5.73333 7.19388ZM6.89167 15.4772V8.50222H4.58333V15.4772H6.89167Z" fill="#5E5ADB"/>
</g>
</svg>
