<svg width="20" height="20" viewBox="0 0 20 20" fill="none" xmlns="http://www.w3.org/2000/svg">
<path d="M10.0002 6.66536C8.1585 6.66536 6.66683 8.15703 6.66683 9.9987C6.66683 11.8404 8.1585 13.332 10.0002 13.332C11.8418 13.332 13.3335 11.8404 13.3335 9.9987C13.3335 8.15703 11.8418 6.66536 10.0002 6.66536ZM17.4502 9.16537C17.0668 5.69036 14.3085 2.93203 10.8335 2.5487V0.832031H9.16683V2.5487C5.69183 2.93203 2.9335 5.69036 2.55016 9.16537H0.833496V10.832H2.55016C2.9335 14.307 5.69183 17.0654 9.16683 17.4487V19.1654H10.8335V17.4487C14.3085 17.0654 17.0668 14.307 17.4502 10.832H19.1668V9.16537H17.4502ZM10.0002 15.832C6.77933 15.832 4.16683 13.2195 4.16683 9.9987C4.16683 6.77786 6.77933 4.16536 10.0002 4.16536C13.221 4.16536 15.8335 6.77786 15.8335 9.9987C15.8335 13.2195 13.221 15.832 10.0002 15.832Z" fill="#5E5ADB"/>
</svg>
