<svg width="21" height="20" viewBox="0 0 21 20" fill="none" xmlns="http://www.w3.org/2000/svg">
<g id="Group 4873">
<circle id="Ellipse 35" cx="10.667" cy="10" r="10" fill="#E8FFFA"/>
<g id="Group">
<g id="Group_2">
<g id="Group_3">
<path id="Vector" d="M9.34203 11.2926V14.8079H6.82056V14.4766C6.82056 14.403 6.78375 14.3478 6.72853 14.311L6.01074 13.9061V12.9674L6.45246 12.7097V13.1699C6.45246 13.2803 6.52608 13.3539 6.63651 13.3539C6.74694 13.3539 6.82056 13.2803 6.82056 13.1699V9.74655C6.82056 9.67293 6.89418 9.5625 7.00461 9.5625C7.09663 9.5625 7.18866 9.63612 7.18866 9.74655V12.1208C7.18866 12.2312 7.26228 12.3048 7.37271 12.3048C7.42792 12.3048 7.46473 12.2864 7.50154 12.2496C7.53835 12.2128 7.55675 12.176 7.55675 12.1208V11.2926C7.55675 11.2005 7.63037 11.1085 7.7408 11.1085C7.83283 11.1085 7.92485 11.1821 7.92485 11.2926V12.1208C7.92485 12.2312 7.99847 12.3048 8.1089 12.3048C8.21933 12.3048 8.29295 12.2312 8.29295 12.1208V11.2926C8.29295 11.2005 8.36657 11.1085 8.477 11.1085C8.56902 11.1085 8.66105 11.1821 8.66105 11.2926V12.1208C8.66105 12.2312 8.73467 12.3048 8.8451 12.3048C8.93712 12.3048 9.02915 12.2312 9.02915 12.1208V11.2926C9.02915 11.2005 9.10277 11.1085 9.2132 11.1085C9.26841 11.1085 9.34203 11.2005 9.34203 11.2926Z" fill="#40D1A6"/>
</g>
<g id="Group_4">
<path id="Vector_2" d="M9.34178 15.1758V16.096C9.34178 16.3353 9.15774 16.5193 8.91847 16.5193H7.24363C7.00436 16.5193 6.82031 16.3353 6.82031 16.096V15.1758H9.34178Z" fill="#40D1A6"/>
</g>
</g>
<g id="Group_5">
<g id="Group_6">
<path id="Vector_3" d="M8.03498 7.39062V10.0777H7.53805V9.74645C7.53805 9.41516 7.26198 9.19431 7.00431 9.19431C6.69142 9.19431 6.45216 9.45197 6.45216 9.74645V10.0777H5.97363V7.39062H8.03498Z" fill="#40D1A6"/>
</g>
<g id="Group_7">
<path id="Vector_4" d="M13.1335 7.15234H12.6182V7.66768H13.1335V7.15234Z" fill="#40D1A6"/>
</g>
<g id="Group_8">
<path id="Vector_5" d="M11.5505 7.15234H11.0352V7.66768H11.5505V7.15234Z" fill="#40D1A6"/>
</g>
<g id="Group_9">
<path id="Vector_6" d="M10.4092 6.28906V8.53446H15.3417V6.28906H10.4092ZM11.9 7.85348C11.9 7.96391 11.808 8.03753 11.7159 8.03753H10.8325C10.7221 8.03753 10.6484 7.96391 10.6484 7.85348V6.97004C10.6484 6.85961 10.7221 6.786 10.8325 6.786H11.7159C11.808 6.786 11.9 6.85961 11.9 6.97004V7.85348ZM13.5012 7.85348C13.5012 7.96391 13.4092 8.03753 13.3172 8.03753H12.4337C12.3233 8.03753 12.2497 7.96391 12.2497 7.85348V6.97004C12.2497 6.85961 12.3233 6.786 12.4337 6.786H13.3172C13.4092 6.786 13.5012 6.85961 13.5012 6.97004V7.85348ZM15.084 7.85348C15.084 7.96391 15.0104 8.03753 14.9 8.03753H14.0165C13.9245 8.03753 13.8325 7.96391 13.8325 7.85348V6.97004C13.8325 6.85961 13.9245 6.786 14.0165 6.786H14.9C15.0104 6.786 15.084 6.85961 15.084 6.97004V7.85348Z" fill="#40D1A6"/>
</g>
<g id="Group_10">
<path id="Vector_7" d="M16.078 5H5.21914C4.92466 5 4.66699 5.23926 4.66699 5.55215V15.0491C4.66699 15.3436 4.90626 15.6012 5.21914 15.6012H6.45227V14.589L5.64245 14.1288V12.7669L6.45227 12.2699V10.4479H5.78969C5.69767 10.4479 5.60564 10.3558 5.60564 10.2638V7.20859V6.10429C5.60564 6.08589 5.60564 6.04908 5.62405 6.03067C5.64245 5.97546 5.71607 5.92025 5.78969 5.92025H8.21914C8.32957 5.92025 8.40319 5.99387 8.40319 6.10429V10.2454C8.40319 10.3374 8.32957 10.4294 8.21914 10.4294H7.53816V10.7607C7.59337 10.7423 7.64859 10.7239 7.72221 10.7239C7.86945 10.7239 7.97988 10.7791 8.09031 10.8528C8.18233 10.7607 8.31116 10.7239 8.4584 10.7239C8.60564 10.7239 8.71607 10.7791 8.8265 10.8712C8.91853 10.7791 9.04736 10.7239 9.1946 10.7239C9.48908 10.7239 9.74675 10.9632 9.74675 11.2761V15.5828H16.1148C16.4093 15.5828 16.667 15.3436 16.667 15.0307V5.55215C16.6302 5.25767 16.3909 5 16.078 5ZM11.624 14.2945H10.6302C10.5198 14.2945 10.4461 14.2025 10.4461 14.1104C10.4461 14 10.5198 13.9264 10.6302 13.9264H11.624C11.7345 13.9264 11.8081 14 11.8081 14.1104C11.8081 14.2209 11.7161 14.2945 11.624 14.2945ZM11.624 12.3804H10.6302C10.5198 12.3804 10.4461 12.3067 10.4461 12.1963C10.4461 12.0859 10.5198 12.0123 10.6302 12.0123H11.624C11.7345 12.0123 11.8081 12.0859 11.8081 12.1963C11.8081 12.2883 11.7161 12.3804 11.624 12.3804ZM11.624 10.4479H10.6302C10.5198 10.4479 10.4461 10.3558 10.4461 10.2638C10.4461 10.1534 10.5198 10.0798 10.6302 10.0798H11.624C11.7345 10.0798 11.8081 10.1534 11.8081 10.2638C11.8081 10.3558 11.7161 10.4479 11.624 10.4479ZM13.3725 14.2945H12.3786C12.2866 14.2945 12.1946 14.2025 12.1946 14.1104C12.1946 14 12.2866 13.9264 12.3786 13.9264H13.3725C13.4829 13.9264 13.5566 14 13.5566 14.1104C13.5566 14.2209 13.4829 14.2945 13.3725 14.2945ZM13.3725 12.3804H12.3786C12.2866 12.3804 12.1946 12.3067 12.1946 12.1963C12.1946 12.0859 12.2866 12.0123 12.3786 12.0123H13.3725C13.4829 12.0123 13.5566 12.0859 13.5566 12.1963C13.5566 12.2883 13.4829 12.3804 13.3725 12.3804ZM13.3725 10.4479H12.3786C12.2866 10.4479 12.1946 10.3558 12.1946 10.2638C12.1946 10.1534 12.2866 10.0798 12.3786 10.0798H13.3725C13.4829 10.0798 13.5566 10.1534 13.5566 10.2638C13.5566 10.3558 13.4829 10.4479 13.3725 10.4479ZM15.121 14.2945H14.1271C14.0351 14.2945 13.9431 14.2025 13.9431 14.1104C13.9431 14 14.0351 13.9264 14.1271 13.9264H15.121C15.2314 13.9264 15.305 14 15.305 14.1104C15.305 14.2209 15.2314 14.2945 15.121 14.2945ZM15.121 12.3804H14.1271C14.0351 12.3804 13.9431 12.3067 13.9431 12.1963C13.9431 12.0859 14.0351 12.0123 14.1271 12.0123H15.121C15.2314 12.0123 15.305 12.0859 15.305 12.1963C15.305 12.2883 15.2314 12.3804 15.121 12.3804ZM15.121 10.4479H14.1271C14.0351 10.4479 13.9431 10.3558 13.9431 10.2638C13.9431 10.1534 14.0351 10.0798 14.1271 10.0798H15.121C15.2314 10.0798 15.305 10.1534 15.305 10.2638C15.305 10.3558 15.2314 10.4479 15.121 10.4479ZM15.7099 8.71779C15.7099 8.82822 15.6179 8.90184 15.5259 8.90184H10.2253C10.1148 8.90184 10.0412 8.82822 10.0412 8.71779V6.10429C10.0412 5.99387 10.1148 5.92025 10.2253 5.92025H15.5259C15.6179 5.92025 15.7099 5.99387 15.7099 6.10429V8.71779Z" fill="#40D1A6"/>
</g>
<g id="Group_11">
<path id="Vector_8" d="M8.03498 6.28906H5.97363V7.02526H8.03498V6.28906Z" fill="#40D1A6"/>
</g>
<g id="Group_12">
<path id="Vector_9" d="M14.7341 7.15234H14.2188V7.66768H14.7341V7.15234Z" fill="#40D1A6"/>
</g>
</g>
</g>
</g>
</svg>
