<svg width="60" height="60" viewBox="0 0 60 60" fill="none" xmlns="http://www.w3.org/2000/svg">
<g id="Pdf File">
<path id="Vector" d="M48.75 59.0625H11.25C8.66531 59.0625 6.5625 56.9597 6.5625 54.375V5.62502C6.5625 3.04033 8.66531 0.937517 11.25 0.937517H30.322C30.9378 0.93584 31.5477 1.05633 32.1166 1.292C32.6855 1.52767 33.2019 1.87385 33.6361 2.31049L52.0645 20.7389C52.5012 21.1731 52.8473 21.6895 53.083 22.2584C53.3187 22.8273 53.4392 23.4372 53.4375 24.053V54.375C53.4375 56.9597 51.3347 59.0625 48.75 59.0625ZM11.25 2.81252C9.69891 2.81252 8.4375 4.07392 8.4375 5.62502V54.375C8.4375 55.9261 9.69891 57.1875 11.25 57.1875H48.75C50.3011 57.1875 51.5625 55.9261 51.5625 54.375V24.053C51.5602 23.3076 51.2643 22.5932 50.7389 22.0645L32.3105 3.63611C32.0499 3.37418 31.7401 3.16652 31.3987 3.02515C31.0574 2.88378 30.6915 2.81151 30.322 2.81252H11.25Z" fill="#FD4233"/>
<path id="Vector_2" d="M44.6296 37.65C44.5968 37.4109 44.4046 37.1109 44.1983 36.9094C43.6077 36.3281 42.3093 36.0234 40.3311 35.9953C38.9905 35.9813 37.378 36.0984 35.6811 36.3375C34.9218 35.9016 34.1389 35.4234 33.5249 34.8469C31.8702 33.3047 30.4921 31.1625 29.6296 28.8047C29.6858 28.5844 29.7327 28.3922 29.7796 28.1953C29.7796 28.1953 30.7077 22.9078 30.4639 21.1172C30.4311 20.8734 30.4077 20.8031 30.3421 20.6109L30.2624 20.4047C30.0093 19.8187 29.5124 19.2 28.7343 19.2328L28.2749 19.2188H28.2655C27.3936 19.2188 26.6905 19.6641 26.503 20.325C25.9405 22.4063 26.5218 25.5234 27.5764 29.5547L27.3046 30.2109C26.5499 32.0578 25.603 33.9141 24.7686 35.55L24.6608 35.7609C23.7796 37.4813 22.9827 38.9438 22.2561 40.1813L21.5108 40.575C21.4546 40.6031 20.1749 41.2828 19.8749 41.4609C17.3296 42.9844 15.6421 44.7094 15.3608 46.0781C15.2718 46.5188 15.3374 47.0766 15.7921 47.3344L16.5139 47.7C16.828 47.8547 17.1608 47.9344 17.4983 47.9344C19.3124 47.9344 21.4171 45.675 24.3186 40.6125C27.6655 39.525 31.4811 38.6156 34.8233 38.1187C37.3686 39.5484 40.4999 40.5469 42.478 40.5469C42.8296 40.5469 43.1343 40.5141 43.378 40.4484C43.7577 40.3453 44.0764 40.1297 44.2733 39.8391C44.6577 39.2625 44.7327 38.4656 44.6296 37.65ZM17.1046 46.5609C17.4327 45.6562 18.7452 43.8656 20.6811 42.2812C20.803 42.1828 21.103 41.9016 21.3749 41.6391C19.3499 44.8688 17.9952 46.1531 17.1046 46.5609ZM28.5702 20.1562C29.1514 20.1562 29.4843 21.6234 29.5124 23.0016C29.5405 24.3797 29.2171 25.3453 28.8186 26.0625C28.4858 25.0031 28.3264 23.3344 28.3264 22.2422C28.3264 22.2422 28.303 20.1562 28.5702 20.1562ZM25.1483 38.9719C25.5561 38.2453 25.978 37.4766 26.4093 36.6656C27.4639 34.6734 28.1296 33.1172 28.6218 31.8375C29.6061 33.6281 30.8343 35.1516 32.2733 36.3703C32.4561 36.5203 32.6483 36.675 32.8452 36.8297C29.9155 37.4062 27.3796 38.1141 25.1483 38.9719ZM43.6311 38.8078C43.453 38.9156 42.9421 38.9813 42.6139 38.9813C41.5546 38.9813 40.2374 38.4984 38.3952 37.7063C39.103 37.6547 39.7546 37.6266 40.3358 37.6266C41.3999 37.6266 41.7139 37.6219 42.7593 37.8891C43.7999 38.1562 43.8139 38.6953 43.6311 38.8078Z" fill="#FF402F"/>
</g>
</svg>
