<svg width="194" height="194" viewBox="0 0 194 194" fill="none" xmlns="http://www.w3.org/2000/svg">
<g id="Word File" clip-path="url(#clip0_1942_70063)">
<path id="Vector" d="M39.4063 169.75L24.2197 154.594H39.4063V169.75ZM154.594 169.75L169.78 154.594H154.594V169.75Z" fill="#A3313A"/>
<path id="Vector_2" d="M154.594 39.4072H130.374V15.1875L154.594 39.4072Z" fill="#B2B2B2"/>
<path id="Vector_3" d="M130.344 15.1562H44.2259C42.9477 15.1562 41.7218 15.664 40.8179 16.5679C39.914 17.4718 39.4063 18.6977 39.4063 19.9759V174.57C39.4062 175.851 39.913 177.08 40.816 177.988C41.7191 178.897 42.9449 179.412 44.2259 179.42H149.774C150.421 179.416 151.061 179.283 151.656 179.028C152.251 178.773 152.789 178.401 153.238 177.935C153.688 177.469 154.039 176.918 154.272 176.314C154.505 175.71 154.614 175.065 154.594 174.418V39.4063H130.344V15.1562Z" fill="#F1F1F1"/>
<path id="Vector_4" d="M27.2812 100.031H166.719C167.523 100.031 168.294 100.351 168.862 100.919C169.431 101.488 169.75 102.259 169.75 103.062V154.594H24.25V103.062C24.25 102.259 24.5694 101.488 25.1378 100.919C25.7063 100.351 26.4773 100.031 27.2812 100.031Z" fill="#C84D52"/>
<path id="Vector_5" d="M71.75 130.736V139.436H65.6875V114.64H75.3875C77.8338 114.468 80.2499 115.263 82.1169 116.853C82.9225 117.634 83.5487 118.58 83.9517 119.627C84.3548 120.674 84.5251 121.796 84.4509 122.916C84.4668 124.346 84.1117 125.756 83.4203 127.008C82.7102 128.233 81.6563 129.224 80.3891 129.857C78.8486 130.592 77.1539 130.945 75.4481 130.888L71.75 130.736ZM78.4188 122.764C78.4188 120.581 77.2063 119.49 74.7812 119.49H71.75V125.947H74.7812C77.2063 125.947 78.4188 124.886 78.4188 122.764ZM108.186 133.373C107.149 135.243 105.59 136.77 103.699 137.769C101.574 138.863 99.208 139.405 96.8184 139.345H87.4519V114.64H96.8184C99.2048 114.577 101.569 115.108 103.699 116.186C105.595 117.163 107.157 118.683 108.186 120.551C109.25 122.534 109.782 124.758 109.732 127.008C109.759 129.226 109.227 131.415 108.186 133.373ZM101.729 132.131C102.983 130.677 103.674 128.821 103.674 126.902C103.674 124.982 102.983 123.126 101.729 121.673C100.225 120.362 98.2641 119.698 96.2728 119.824H93.4537V133.98H96.2728C98.2516 134.131 100.211 133.499 101.729 132.221V132.131ZM129.313 114.64V119.43H119.128V124.856H126.979V129.402H119.128V139.436H113.066V114.64H129.313Z" fill="white"/>
<path id="Vector_6" d="M99.7281 31.9184C99.9515 34.0194 99.7452 36.1439 99.1218 38.1628C96.424 47.4687 87.3909 81.3884 80.5705 86.2081C70.8402 93.1193 65.778 85.2684 70.9615 79.6909C76.1449 74.1134 107.427 66.6868 117.4 66.6868C130.374 66.6868 128.707 78.1752 121.341 77.4781C113.035 76.6899 92.2712 62.534 91.0284 35.6165C90.4827 26.0378 98.7884 24.2493 99.7281 31.9184Z" stroke="#C84D52" stroke-miterlimit="10"/>
</g>
<defs>
<clipPath id="clip0_1942_70063">
<rect width="194" height="194" fill="white"/>
</clipPath>
</defs>
</svg>
