<svg width="13" height="12" viewBox="0 0 13 12" fill="none" xmlns="http://www.w3.org/2000/svg">
<g id="Frame" clip-path="url(#clip0_1077_31436)">
<g id="&#233;&#161;&#181;&#233;&#157;&#162;-1">
<g id="System">
<g id="refresh_2_fill">
<path id="&#229;&#189;&#162;&#231;&#138;&#182;" d="M1.08205 6.04232C1.07746 5.40878 1.75551 5.04895 2.27152 5.33913L2.32815 5.37407L3.66707 6.27622C4.3791 6.75594 3.93607 7.84897 3.11765 7.73353L3.0486 7.72107L2.99436 7.70917C3.46101 8.62062 4.29674 9.33797 5.36253 9.62357C7.03793 10.0725 8.75428 9.31257 9.58173 7.87677C9.78853 7.51787 10.2471 7.39462 10.606 7.60142C10.9649 7.80827 11.0882 8.26682 10.8813 8.62572C9.72328 10.6353 7.32228 11.7016 4.97428 11.0725C2.87193 10.5091 1.41277 8.74712 1.13153 6.72152C1.1005 6.49797 1.08378 6.27117 1.08205 6.04232ZM1.78505 3.37677C2.94318 1.36731 5.34408 0.301101 7.69203 0.930225C9.79438 1.49355 11.2535 3.25554 11.5348 5.28117C11.5658 5.50472 11.5825 5.73152 11.5842 5.96032C11.5889 6.59386 10.9108 6.95369 10.3948 6.66355L10.3382 6.62862L8.99918 5.72642C8.28716 5.2467 8.73013 4.15372 9.54852 4.26909L9.61758 4.28155L9.67193 4.29347C9.20528 3.38202 8.36953 2.66468 7.30378 2.37912C5.62843 1.93021 3.91212 2.69007 3.08466 4.12578C2.87782 4.48466 2.41922 4.60791 2.06035 4.40108C1.70147 4.19424 1.57822 3.73564 1.78505 3.37677Z" fill="#1C1C1C"/>
</g>
</g>
</g>
</g>
<defs>
<clipPath id="clip0_1077_31436">
<rect width="12" height="12" fill="white" transform="translate(0.333008)"/>
</clipPath>
</defs>
</svg>
