<svg width="19" height="19" viewBox="0 0 19 19" fill="none" xmlns="http://www.w3.org/2000/svg">
<g id="Frame" clip-path="url(#clip0_1979_71399)">
<g id="&#233;&#161;&#181;&#233;&#157;&#162;-1">
<g id="System">
<g id="refresh_2_fill">
<path id="&#229;&#189;&#162;&#231;&#138;&#182;" d="M1.18558 9.56701C1.17831 8.56391 2.25189 7.99417 3.06891 8.45363L3.15856 8.50894L5.27852 9.93735C6.40591 10.6969 5.70444 12.4275 4.40861 12.2448L4.29928 12.225L4.2134 12.2062C4.95226 13.6493 6.2755 14.7851 7.963 15.2373C10.6157 15.9481 13.3333 14.7449 14.6434 12.4716C14.9708 11.9033 15.6969 11.7081 16.2652 12.0356C16.8334 12.3631 17.0286 13.0891 16.7011 13.6574C14.8675 16.8393 11.0659 18.5275 7.34827 17.5314C4.01955 16.6394 1.70921 13.8496 1.26392 10.6424C1.21478 10.2885 1.18831 9.92935 1.18558 9.56701ZM2.29866 5.34655C4.13236 2.1649 7.93379 0.476744 11.6514 1.47286C14.9801 2.36479 17.2904 5.15461 17.7357 8.36185C17.7849 8.71581 17.8113 9.07491 17.814 9.43717C17.8214 10.4403 16.7477 11.01 15.9308 10.5506L15.8411 10.4953L13.721 9.06683C12.5937 8.30727 13.295 6.57672 14.5908 6.7594L14.7002 6.77911L14.7862 6.79799C14.0474 5.35486 12.7241 4.21908 11.0366 3.76693C8.38401 3.05616 5.66652 4.25927 4.35637 6.53248C4.02888 7.1007 3.30276 7.29586 2.73455 6.96837C2.16633 6.64088 1.97117 5.91476 2.29866 5.34655Z" fill="#1C1C1C"/>
</g>
</g>
</g>
</g>
<defs>
<clipPath id="clip0_1979_71399">
<rect width="19" height="19" fill="white"/>
</clipPath>
</defs>
</svg>
