<svg width="12" height="12" viewBox="0 0 12 12" fill="none" xmlns="http://www.w3.org/2000/svg">
<path d="M8.50338 7.50521H7.97671L7.79004 7.32521C8.44338 6.56521 8.83671 5.57854 8.83671 4.50521C8.83671 2.11188 6.89671 0.171875 4.50338 0.171875C2.11004 0.171875 0.170044 2.11188 0.170044 4.50521C0.170044 6.89854 2.11004 8.83854 4.50338 8.83854C5.57671 8.83854 6.56338 8.44521 7.32338 7.79188L7.50338 7.97854V8.50521L10.8367 11.8319L11.83 10.8385L8.50338 7.50521ZM4.50338 7.50521C2.84338 7.50521 1.50338 6.16521 1.50338 4.50521C1.50338 2.84521 2.84338 1.50521 4.50338 1.50521C6.16338 1.50521 7.50338 2.84521 7.50338 4.50521C7.50338 6.16521 6.16338 7.50521 4.50338 7.50521Z" fill="#050609"/>
</svg>
