<svg width="14" height="16" viewBox="0 0 14 16" fill="none" xmlns="http://www.w3.org/2000/svg">
<path d="M7.533 0.134025L12.783 1.81402C13.1364 1.92702 13.4447 2.14938 13.6634 2.44901C13.8822 2.74864 14 3.11004 14 3.48102V7.00102C14 8.56702 13.68 10.183 12.697 11.683C11.714 13.181 10.112 14.496 7.665 15.538C7.45473 15.6276 7.22854 15.6737 7 15.6737C6.77146 15.6737 6.54527 15.6276 6.335 15.538C3.888 14.496 2.286 13.181 1.303 11.683C0.32 10.183 5.87687e-09 8.56702 5.87687e-09 7.00102V3.48102C-3.03885e-05 3.11004 0.117837 2.74864 0.336584 2.44901C0.555332 2.14938 0.863641 1.92702 1.217 1.81402L6.467 0.134025C6.81367 0.0230335 7.18633 0.0230335 7.533 0.134025ZM6.923 1.56302L6.924 1.56402L1.674 3.24402C1.62376 3.26022 1.5799 3.29183 1.54867 3.33438C1.51743 3.37693 1.5004 3.42824 1.5 3.48102V7.00102C1.5 8.36102 1.775 9.66702 2.557 10.86C3.341 12.054 4.678 13.202 6.923 14.158C6.94734 14.1684 6.97353 14.1738 7 14.1738C7.02647 14.1738 7.05266 14.1684 7.077 14.158C9.322 13.201 10.659 12.055 11.443 10.861C12.225 9.66702 12.5 8.35903 12.5 7.00102V3.48102C12.5 3.42803 12.4831 3.37642 12.4518 3.33365C12.4205 3.29087 12.3765 3.25913 12.326 3.24302L7.076 1.56302C7.02625 1.54703 6.97275 1.54703 6.923 1.56302ZM8.5 6.50102C8.5 7.03702 8.214 7.53302 7.75 7.80102V10.251C7.75 10.4499 7.67098 10.6407 7.53033 10.7814C7.38968 10.922 7.19891 11.001 7 11.001C6.80109 11.001 6.61032 10.922 6.46967 10.7814C6.32902 10.6407 6.25 10.4499 6.25 10.251V7.80102C6.02201 7.66939 5.83267 7.48007 5.70102 7.25209C5.56937 7.02411 5.50004 6.76549 5.5 6.50223C5.49996 6.23896 5.5692 5.98032 5.70078 5.7523C5.83236 5.52427 6.02163 5.33489 6.24958 5.20319C6.47753 5.07148 6.73614 5.00209 6.9994 5.00199C7.26266 5.00188 7.52132 5.07107 7.74938 5.20259C7.97743 5.33411 8.16686 5.52334 8.29862 5.75126C8.43038 5.97918 8.49983 6.23776 8.5 6.50102Z" fill="#57606A"/>
</svg>
