<svg width="14" height="14" viewBox="0 0 14 14" fill="none" xmlns="http://www.w3.org/2000/svg">
<path d="M0.5 2.25C0.5 1.284 1.284 0.5 2.25 0.5H4.75C5.716 0.5 6.5 1.284 6.5 2.25V4.75C6.5 5.21413 6.31563 5.65925 5.98744 5.98744C5.65925 6.31563 5.21413 6.5 4.75 6.5H2.25C1.78587 6.5 1.34075 6.31563 1.01256 5.98744C0.684375 5.65925 0.5 5.21413 0.5 4.75V2.25ZM7.5 2.25C7.5 1.284 8.284 0.5 9.25 0.5H11.75C12.716 0.5 13.5 1.284 13.5 2.25V4.75C13.5 5.21413 13.3156 5.65925 12.9874 5.98744C12.6592 6.31563 12.2141 6.5 11.75 6.5H9.25C8.78587 6.5 8.34075 6.31563 8.01256 5.98744C7.68437 5.65925 7.5 5.21413 7.5 4.75V2.25ZM0.5 9.25C0.5 8.284 1.284 7.5 2.25 7.5H4.75C5.716 7.5 6.5 8.284 6.5 9.25V11.75C6.5 12.2141 6.31563 12.6592 5.98744 12.9874C5.65925 13.3156 5.21413 13.5 4.75 13.5H2.25C1.78587 13.5 1.34075 13.3156 1.01256 12.9874C0.684375 12.6592 0.5 12.2141 0.5 11.75V9.25ZM7.5 9.25C7.5 8.284 8.284 7.5 9.25 7.5H11.75C12.716 7.5 13.5 8.284 13.5 9.25V11.75C13.5 12.2141 13.3156 12.6592 12.9874 12.9874C12.6592 13.3156 12.2141 13.5 11.75 13.5H9.25C8.78587 13.5 8.34075 13.3156 8.01256 12.9874C7.68437 12.6592 7.5 12.2141 7.5 11.75V9.25ZM2.25 2C2.1837 2 2.12011 2.02634 2.07322 2.07322C2.02634 2.12011 2 2.1837 2 2.25V4.75C2 4.888 2.112 5 2.25 5H4.75C4.8163 5 4.87989 4.97366 4.92678 4.92678C4.97366 4.87989 5 4.8163 5 4.75V2.25C5 2.1837 4.97366 2.12011 4.92678 2.07322C4.87989 2.02634 4.8163 2 4.75 2H2.25ZM9.25 2C9.1837 2 9.12011 2.02634 9.07322 2.07322C9.02634 2.12011 9 2.1837 9 2.25V4.75C9 4.888 9.112 5 9.25 5H11.75C11.8163 5 11.8799 4.97366 11.9268 4.92678C11.9737 4.87989 12 4.8163 12 4.75V2.25C12 2.1837 11.9737 2.12011 11.9268 2.07322C11.8799 2.02634 11.8163 2 11.75 2H9.25ZM2.25 9C2.1837 9 2.12011 9.02634 2.07322 9.07322C2.02634 9.12011 2 9.1837 2 9.25V11.75C2 11.888 2.112 12 2.25 12H4.75C4.8163 12 4.87989 11.9737 4.92678 11.9268C4.97366 11.8799 5 11.8163 5 11.75V9.25C5 9.1837 4.97366 9.12011 4.92678 9.07322C4.87989 9.02634 4.8163 9 4.75 9H2.25ZM9.25 9C9.1837 9 9.12011 9.02634 9.07322 9.07322C9.02634 9.12011 9 9.1837 9 9.25V11.75C9 11.888 9.112 12 9.25 12H11.75C11.8163 12 11.8799 11.9737 11.9268 11.9268C11.9737 11.8799 12 11.8163 12 11.75V9.25C12 9.1837 11.9737 9.12011 11.9268 9.07322C11.8799 9.02634 11.8163 9 11.75 9H9.25Z" fill="#57606A"/>
</svg>
