<svg width="40" height="41" viewBox="0 0 40 41" fill="none" xmlns="http://www.w3.org/2000/svg">
<path d="M20 14.5C21.1046 14.5 22 13.6046 22 12.5C22 11.3954 21.1046 10.5 20 10.5C18.8954 10.5 18 11.3954 18 12.5C18 13.6046 18.8954 14.5 20 14.5Z" fill="#1C1C1C"/>
<path d="M20 22.5C21.1046 22.5 22 21.6046 22 20.5C22 19.3954 21.1046 18.5 20 18.5C18.8954 18.5 18 19.3954 18 20.5C18 21.6046 18.8954 22.5 20 22.5Z" fill="#1C1C1C"/>
<path d="M20 30.5C21.1046 30.5 22 29.6046 22 28.5C22 27.3954 21.1046 26.5 20 26.5C18.8954 26.5 18 27.3954 18 28.5C18 29.6046 18.8954 30.5 20 30.5Z" fill="#1C1C1C"/>
</svg>
