<svg width="13" height="12" viewBox="0 0 13 12" fill="none" xmlns="http://www.w3.org/2000/svg">
<g id="Frame">
<path id="Vector" fill-rule="evenodd" clip-rule="evenodd" d="M4.45801 3.375C4.45801 2.87772 4.65555 2.40081 5.00718 2.04917C5.35881 1.69754 5.83573 1.5 6.33301 1.5C6.83029 1.5 7.3072 1.69754 7.65883 2.04917C8.01046 2.40081 8.20801 2.87772 8.20801 3.375C8.20801 3.87228 8.01046 4.34919 7.65883 4.70083C7.3072 5.05246 6.83029 5.25 6.33301 5.25C5.83573 5.25 5.35881 5.05246 5.00718 4.70083C4.65555 4.34919 4.45801 3.87228 4.45801 3.375ZM8.20801 4.875C8.20801 4.47718 8.36604 4.09564 8.64735 3.81434C8.92865 3.53304 9.31018 3.375 9.70801 3.375C10.1058 3.375 10.4874 3.53304 10.7687 3.81434C11.05 4.09564 11.208 4.47718 11.208 4.875C11.208 5.27282 11.05 5.65436 10.7687 5.93566C10.4874 6.21696 10.1058 6.375 9.70801 6.375C9.31018 6.375 8.92865 6.21696 8.64735 5.93566C8.36604 5.65436 8.20801 5.27282 8.20801 4.875ZM1.45801 4.875C1.45801 4.47718 1.61604 4.09564 1.89735 3.81434C2.17865 3.53304 2.56018 3.375 2.95801 3.375C3.35583 3.375 3.73736 3.53304 4.01867 3.81434C4.29997 4.09564 4.45801 4.47718 4.45801 4.875C4.45801 5.27282 4.29997 5.65436 4.01867 5.93566C3.73736 6.21696 3.35583 6.375 2.95801 6.375C2.56018 6.375 2.17865 6.21696 1.89735 5.93566C1.61604 5.65436 1.45801 5.27282 1.45801 4.875ZM3.48801 7.5585C3.79298 7.08051 4.21355 6.68713 4.71082 6.41472C5.20809 6.14232 5.76601 5.99968 6.33301 6C6.80792 5.99957 7.27757 6.09944 7.71121 6.29308C8.14485 6.48672 8.5327 6.76977 8.84937 7.12368C9.16605 7.4776 9.4044 7.89441 9.54884 8.34682C9.69327 8.79924 9.74053 9.27706 9.68751 9.749C9.68103 9.80763 9.6608 9.86391 9.62849 9.91325C9.59617 9.9626 9.55266 10.0036 9.50151 10.033C8.53729 10.5863 7.44468 10.8766 6.33301 10.875C5.18051 10.875 4.09801 10.569 3.16451 10.033C3.11335 10.0036 3.06985 9.9626 3.03753 9.91325C3.00521 9.86391 2.98499 9.80763 2.97851 9.749C2.89454 8.98231 3.07424 8.20989 3.48801 7.559V7.5585Z" fill="#CB3D64"/>
<path id="Vector_2" d="M2.87405 7.12891C2.38093 7.8901 2.15118 8.79206 2.22005 9.69641C1.9198 9.65089 1.6245 9.57723 1.33805 9.47641L1.28055 9.45641C1.22925 9.4382 1.18432 9.40551 1.15122 9.36229C1.11812 9.31907 1.09826 9.26718 1.09405 9.21291L1.08905 9.15241C1.06885 8.90139 1.09943 8.64887 1.17895 8.40993C1.25847 8.17099 1.38532 7.95051 1.55191 7.76166C1.7185 7.57281 1.92143 7.41945 2.14859 7.31074C2.37574 7.20202 2.62247 7.14018 2.87405 7.12891ZM10.446 9.69641C10.5149 8.79206 10.2852 7.8901 9.79205 7.12891C10.0436 7.14018 10.2904 7.20202 10.5175 7.31074C10.7447 7.41945 10.9476 7.57281 11.1142 7.76166C11.2808 7.95051 11.4076 8.17099 11.4871 8.40993C11.5667 8.64887 11.5972 8.90139 11.577 9.15241L11.572 9.21291C11.5677 9.26709 11.5478 9.31887 11.5147 9.36199C11.4816 9.40512 11.4368 9.43773 11.3855 9.45591L11.328 9.47591C11.0445 9.57591 10.75 9.65041 10.446 9.69641Z" fill="#CB3D64"/>
</g>
</svg>
