<svg xmlns="http://www.w3.org/2000/svg" width="18" height="19" viewBox="0 0 18 19" fill="none">
  <g clip-path="url(#clip0_2051_101489)">
    <path fill-rule="evenodd" clip-rule="evenodd" d="M10.7094 2C11.3551 2 11.9283 2.41314 12.1325 3.02565L12.5406 4.25H15C15.4142 4.25 15.75 4.58579 15.75 5C15.75 5.4142 15.4142 5.74998 15 5.75L14.9981 5.80344L14.3476 14.9103C14.2635 16.0878 13.2838 17 12.1033 17H5.89668C4.71624 17 3.7365 16.0878 3.6524 14.9103L3.00191 5.80344C3.00062 5.78551 2.99998 5.76769 2.99997 5.75C2.58577 5.74998 2.25 5.4142 2.25 5C2.25 4.58579 2.58579 4.25 3 4.25H5.45943L5.86754 3.02565C6.07172 2.41314 6.64493 2 7.29057 2H10.7094ZM6.75 8C6.36537 8 6.04837 8.28952 6.00505 8.66253L6 8.75V13.25C6 13.6642 6.33578 14 6.75 14C7.13463 14 7.45163 13.7105 7.49495 13.3375L7.5 13.25V8.75C7.5 8.33577 7.16422 8 6.75 8ZM11.25 8C10.8358 8 10.5 8.33577 10.5 8.75V13.25C10.5 13.6642 10.8358 14 11.25 14C11.6642 14 12 13.6642 12 13.25V8.75C12 8.33577 11.6642 8 11.25 8ZM10.7094 3.5H7.29057L7.04057 4.25H10.9594L10.7094 3.5Z" fill="white"/>
  </g>
  <defs>
    <clipPath id="clip0_2051_101489">
      <rect width="18" height="18" fill="white" transform="translate(0 0.5)"/>
    </clipPath>
  </defs>
</svg>