<svg width="20" height="21" viewBox="0 0 20 21" fill="none" xmlns="http://www.w3.org/2000/svg">
<g id="Frame">
<path id="Vector" d="M18.7168 5.0607C18.0751 5.35237 17.3834 5.54404 16.6668 5.6357C17.4001 5.19404 17.9668 4.49404 18.2334 3.65237C17.5418 4.06904 16.7751 4.36071 15.9668 4.52737C15.3084 3.81071 14.3834 3.39404 13.3334 3.39404C11.3751 3.39404 9.77512 4.99404 9.77512 6.96904C9.77512 7.25237 9.80845 7.52737 9.86678 7.7857C6.90012 7.6357 4.25845 6.2107 2.50012 4.05237C2.19178 4.57737 2.01678 5.19404 2.01678 5.84404C2.01678 7.0857 2.64178 8.1857 3.60845 8.8107C3.01678 8.8107 2.46678 8.64404 1.98345 8.39404V8.41904C1.98345 10.1524 3.21678 11.6024 4.85012 11.9274C4.32572 12.0709 3.7752 12.0909 3.24178 11.9857C3.46812 12.6961 3.9114 13.3177 4.5093 13.7632C5.1072 14.2086 5.82966 14.4555 6.57512 14.4691C5.31148 15.4694 3.74511 16.0102 2.13345 16.0024C1.85012 16.0024 1.56678 15.9857 1.28345 15.9524C2.86678 16.9691 4.75012 17.5607 6.76678 17.5607C13.3334 17.5607 16.9418 12.1107 16.9418 7.3857C16.9418 7.22737 16.9418 7.07737 16.9334 6.91904C17.6334 6.41904 18.2334 5.7857 18.7168 5.0607Z" fill="#5E5ADB"/>
</g>
</svg>
