<svg width="20" height="21" viewBox="0 0 20 21" fill="none" xmlns="http://www.w3.org/2000/svg">
<g id="Frame" clip-path="url(#clip0_2493_17688)">
<g id="Icon">
<g id="User">
<g id="user_setting_fill">
<path id="&#229;&#189;&#162;&#231;&#138;&#182;" d="M9.1665 2.14844C6.86532 2.14844 4.99984 4.01392 4.99984 6.3151C4.99984 8.61629 6.86532 10.4818 9.1665 10.4818C11.4677 10.4818 13.3332 8.61629 13.3332 6.3151C13.3332 4.01392 11.4677 2.14844 9.1665 2.14844ZM9.1665 11.3151C7.17028 11.3151 5.35373 11.8932 4.0184 12.708C3.35103 13.1153 2.7814 13.5954 2.36981 14.1164C1.96488 14.629 1.6665 15.2426 1.6665 15.8984C1.6665 16.6025 2.00912 17.1577 2.50205 17.5534C2.9692 17.9284 3.58469 18.1764 4.23914 18.3498C5.55372 18.6979 7.30901 18.8151 9.1665 18.8151L9.73767 18.8112C10.0213 18.8073 10.2834 18.6594 10.4334 18.4185C10.5833 18.1778 10.6006 17.8773 10.479 17.6209C10.172 16.9734 9.99984 16.2489 9.99984 15.4818C9.99984 14.4383 10.3186 13.4718 10.8639 12.6711C11.0289 12.4289 11.0545 12.1179 10.9314 11.8519C10.8083 11.5859 10.5547 11.4043 10.2633 11.3733C9.90567 11.3353 9.53942 11.3151 9.1665 11.3151ZM17.1798 13.3725C17.41 12.9739 17.2734 12.4643 16.8748 12.2342C16.4763 12.004 15.9666 12.1406 15.7365 12.5392L15.4567 13.0239C15.1577 12.9681 14.8478 12.9665 14.5427 13.0233L14.2632 12.5392C14.0331 12.1406 13.5234 12.004 13.1248 12.2342C12.7263 12.4643 12.5897 12.9739 12.8198 13.3725L13.0993 13.8566C12.8976 14.0924 12.744 14.3617 12.6428 14.6484H12.0832C11.6229 14.6484 11.2498 15.0216 11.2498 15.4818C11.2498 15.942 11.6229 16.3151 12.0832 16.3151H12.6423C12.6928 16.4572 12.7568 16.5966 12.8348 16.7318C12.9128 16.867 13.0016 16.9922 13.0994 17.1068L12.8198 17.591C12.5897 17.9896 12.7263 18.4993 13.1248 18.7294C13.5234 18.9595 14.0331 18.8229 14.2632 18.4244L14.543 17.9398C14.842 17.9954 15.1519 17.9971 15.457 17.9404L15.7365 18.4244C15.9666 18.8229 16.4763 18.9595 16.8748 18.7294C17.2734 18.4993 17.41 17.9896 17.1798 17.591L16.9004 17.107C17.1021 16.8712 17.2557 16.6019 17.3569 16.3151H17.9165C18.3768 16.3151 18.7498 15.942 18.7498 15.4818C18.7498 15.0216 18.3768 14.6484 17.9165 14.6484H17.3573C17.3069 14.5064 17.2429 14.367 17.1649 14.2318C17.0868 14.0966 16.9981 13.9714 16.9003 13.8569L17.1798 13.3725Z" fill="#1C1C1C"/>
</g>
</g>
</g>
</g>
<defs>
<clipPath id="clip0_2493_17688">
<rect width="20" height="20" fill="white" transform="translate(0 0.480469)"/>
</clipPath>
</defs>
</svg>
