<svg width="20" height="21" viewBox="0 0 20 21" fill="none" xmlns="http://www.w3.org/2000/svg">
<g id="Frame">
<path id="Vector" d="M19.5788 5.24623C19.465 4.82341 19.2421 4.43789 18.9325 4.12827C18.6229 3.81865 18.2373 3.59578 17.8145 3.48197C16.2574 3.06055 10.0004 3.06055 10.0004 3.06055C10.0004 3.06055 3.74333 3.06055 2.18621 3.48197C1.76339 3.59578 1.37788 3.81865 1.06826 4.12827C0.758637 4.43789 0.535769 4.82341 0.421959 5.24623C0.131211 6.83425 -0.00988161 8.44605 0.000537443 10.0604C-0.00988161 11.6748 0.131211 13.2866 0.421959 14.8746C0.535769 15.2974 0.758637 15.6829 1.06826 15.9925C1.37788 16.3022 1.76339 16.525 2.18621 16.6388C3.74333 17.0603 10.0004 17.0603 10.0004 17.0603C10.0004 17.0603 16.2574 17.0603 17.8145 16.6388C18.2373 16.525 18.6229 16.3022 18.9325 15.9925C19.2421 15.6829 19.465 15.2974 19.5788 14.8746C19.8695 13.2866 20.0106 11.6748 20.0002 10.0604C20.0106 8.44605 19.8695 6.83425 19.5788 5.24623ZM8.0004 13.0603V7.06048L13.1932 10.0604L8.0004 13.0603Z" fill="#5E5ADB"/>
</g>
</svg>
